<svg width="39" height="39" viewBox="0 0 39 39" fill="none" xmlns="http://www.w3.org/2000/svg">
<path d="M0 0V39H39V0H0ZM13 30.875H8.125V13H13V30.875ZM10.5625 10.9395C8.99275 10.9395 7.71875 9.65575 7.71875 8.073C7.71875 6.49025 8.99275 5.2065 10.5625 5.2065C12.1322 5.2065 13.4062 6.49025 13.4062 8.073C13.4062 9.65575 12.1339 10.9395 10.5625 10.9395ZM32.5 30.875H27.625V21.7685C27.625 16.2955 21.125 16.7099 21.125 21.7685V30.875H16.25V13H21.125V15.8681C23.3951 11.6659 32.5 11.3555 32.5 19.8916V30.875Z" fill="white"/>
</svg>
