<svg width="117" height="32" viewBox="0 0 117 32" fill="none" xmlns="http://www.w3.org/2000/svg">
<g clip-path="url(#clip0)">
<path d="M16.3426 17.2237C15.2586 16.4079 13.9722 15.7582 12.5701 15.7582C9.76124 15.7582 7.54979 17.9564 7.54979 20.8482C7.54979 23.8621 9.67934 25.9771 12.6906 25.9771C13.977 25.9771 15.379 25.4496 16.3426 24.5508V30.8228C14.7382 31.6386 12.97 32.0049 11.2018 32.0049C5.09743 32 0 27.3986 0 21.0875C0 14.371 5.05889 9.73047 11.5246 9.73047C13.2109 9.73047 14.8972 10.1359 16.3426 10.9517V17.2237Z" fill="#F9F9FF"/>
<path d="M42.3548 20.8872C42.3548 27.9701 36.8526 32 30.5507 32C24.2873 32 18.7515 28.0092 18.7515 20.8872C18.7515 13.7653 24.2536 9.73047 30.5507 9.73047C36.8575 9.73047 42.3548 13.7604 42.3548 20.8872ZM26.0844 20.8872C26.0844 23.5348 27.7274 25.5717 30.5507 25.5717C33.3789 25.5717 35.0218 23.5348 35.0218 20.8872C35.0218 18.3227 33.3789 16.1637 30.5507 16.1637C27.7274 16.1637 26.0844 18.3227 26.0844 20.8872Z" fill="#F9F9FF"/>
<path d="M43.9785 10.4241H52.7183L56.1969 14.7373L59.6755 10.4241H68.5647L60.5476 19.9933L70.2317 31.3113H61.1883L56.1969 25.1223L51.2055 31.3113H42.1621L51.8463 19.9933L43.9785 10.4241Z" fill="#F9F9FF"/>
<path d="M79.4775 27.3596C79.4775 29.6261 77.6611 31.5018 75.3918 31.5018C73.1225 31.5018 71.3062 29.6261 71.3062 27.3596C71.3062 25.0588 73.1225 23.2173 75.3918 23.2173C77.6611 23.2173 79.4775 25.0588 79.4775 27.3596Z" fill="#F9F9FF"/>
<path d="M89.5421 4.15204C89.5421 6.43322 87.6968 8.30408 85.4468 8.30408C83.1969 8.30408 81.3516 6.43322 81.3516 4.15204C81.3516 1.87086 83.1969 0 85.4468 0C87.6968 0 89.5421 1.87086 89.5421 4.15204ZM89.1037 31.3064H81.7948V10.4241H89.1037V31.3064Z" fill="#F9F9FF"/>
<path d="M99.901 31.3064H92.5921V16.5301H90.2217V10.4241H92.5921V4.1521H99.901V10.4241H104.04V16.5301H99.901V31.3064Z" fill="#F9F9FF"/>
<path d="M117 25.7134H103.63V31.3064H117V25.7134Z" fill="#F9F9FF"/>
</g>
<defs>
<clipPath id="clip0">
<rect width="117" height="32" fill="white"/>
</clipPath>
</defs>
</svg>
