<svg width="40" height="39" viewBox="0 0 40 39" fill="none" xmlns="http://www.w3.org/2000/svg">
<rect x="0.939148" width="38.521" height="38.521" fill="white"/>
<g clip-path="url(#clip0)">
<path d="M28.3777 11.326C25.1695 11.3414 22.731 13.4632 21.8181 16.8445C20.2865 14.4875 19.0916 11.7913 18.4064 9.51514L15.0298 9.53104L15.0766 18.4814C15.0786 18.9028 14.9975 19.3204 14.8381 19.7105C14.6787 20.1005 14.4441 20.4554 14.1475 20.7548C13.851 21.0541 13.4984 21.2921 13.1098 21.4552C12.7213 21.6183 12.3044 21.7033 11.8831 21.7053C11.032 21.7093 10.2143 21.3751 9.6097 20.7762C9.31033 20.4797 9.0723 20.1271 8.9092 19.7386C8.7461 19.35 8.66113 18.9332 8.65914 18.5118L8.61237 9.56144L5.23389 9.57781L5.28065 18.5286C5.29375 22.2429 8.26161 25.186 11.8936 25.1673C15.5255 25.1486 18.4667 22.1807 18.4504 18.4655L18.4434 16.9456C19.1243 18.2925 19.9755 19.7235 20.9108 20.9863L18.846 30.8748L22.3068 30.8589L23.794 23.6745C25.1484 24.513 26.6702 25.012 28.4427 25.0036C32.1579 24.9872 35.1838 21.9342 35.1651 18.0493C35.1482 14.3331 32.0934 11.3087 28.3782 11.3255L28.3777 11.326ZM28.4259 21.5428C27.0752 21.5489 25.7218 20.9648 24.6199 20.0402L24.9511 18.6839V18.5988C25.198 17.1612 25.9453 14.7096 28.4783 14.6984C29.3733 14.6967 30.2326 15.0494 30.8685 15.6792C31.5044 16.3091 31.8653 17.165 31.8722 18.06C31.7959 20.0023 30.1993 21.5302 28.4254 21.5381L28.4259 21.5428Z" fill="#232323"/>
</g>
<defs>
<clipPath id="clip0">
<rect width="29.9312" height="29.9312" fill="white" transform="translate(5.23389 4.29492)"/>
</clipPath>
</defs>
</svg>
