<svg width="39" height="39" viewBox="0 0 39 39" fill="none" xmlns="http://www.w3.org/2000/svg">
<path fill-rule="evenodd" clip-rule="evenodd" d="M38.293 39H0.292969V0H38.293V39ZM31.9121 29.8204V29.3833L29.9377 27.3942C29.7636 27.2577 29.6765 27.0335 29.7129 26.8109V12.1891C29.6765 11.9665 29.7636 11.7423 29.9377 11.6058L31.9596 9.61675V9.17963H24.9581L19.9675 21.957L14.2896 9.17963H6.94614V9.61675L9.31164 12.5401C9.5428 12.7563 9.66155 13.0715 9.62989 13.39V24.882C9.69955 25.2964 9.5713 25.7205 9.28789 26.0228L6.6263 29.3345V29.7716H14.1725V29.3345L11.5109 26.0228C11.2243 25.7205 11.0897 25.2996 11.1436 24.882V14.9435L17.7666 29.7716H18.5361L24.2251 14.9435V26.7621C24.2251 27.0774 24.2251 27.1391 24.024 27.3455L21.9783 29.3833V29.8204H31.9121Z" fill="white"/>
</svg>
